<svg xmlns:xlink="http://www.w3.org/1999/xlink" xmlns="http://www.w3.org/2000/svg" width="28" height="28" viewBox="0 0 28 28" fill="none">
    <rect width="28" height="28" rx="14" fill="#fff"/>
    <path d="M18.115 11.127c-.292-.168-.668-.168-1.003 0l-2.34 1.386-1.587.882-2.297 1.386c-.293.168-.669.168-1.003 0L8.09 13.689a1.025 1.025 0 0 1-.502-.882v-2.1c0-.337.168-.673.502-.883l1.796-1.05c.293-.168.668-.168 1.003 0l1.796 1.092c.293.168.501.505.501.883v1.386l1.588-.924V9.782c0-.336-.167-.672-.502-.882L10.93 6.926c-.293-.168-.669-.168-1.003 0L6.5 8.942a.925.925 0 0 0-.501.84v3.949c0 .336.167.672.501.882l3.384 1.974c.293.168.668.168 1.003 0l2.297-1.344 1.588-.924 2.297-1.344c.293-.168.669-.168 1.003 0l1.796 1.05c.293.168.502.504.502.882v2.1c0 .336-.167.672-.502.882l-1.754 1.05c-.292.169-.668.169-1.003 0l-1.796-1.05a1.025 1.025 0 0 1-.501-.882v-1.344l-1.588.924v1.386c0 .337.167.672.502.883l3.383 1.974c.293.168.669.168 1.003 0l3.384-1.974c.292-.169.501-.505.501-.883v-3.99c0-.336-.167-.672-.501-.882l-3.384-1.974z" fill="#755AFA"/>
</svg>