<svg xmlns:xlink="http://www.w3.org/1999/xlink" viewBox="0 0 25 42" xmlns="http://www.w3.org/2000/svg" class="copy-icon__svg--chain copy-icon__svg" width="25"  height="42" ><g fill="none" fill-rule="evenodd" stroke="#EB01F3"><path d="M5.253 40.194a6.401 6.401 0 0 1-3.88-8.18l1.676-4.698a6.401 6.401 0 0 1 8.18-3.879 6.4 6.4 0 0 1 3.879 8.18l-1.675 4.698a6.401 6.401 0 0 1-8.18 3.88Z" stroke="#EB01F3" fill="none"></path><path d="M14.198 18.13a6.401 6.401 0 0 1-3.879-8.18l1.675-4.697a6.401 6.401 0 0 1 8.18-3.88 6.4 6.4 0 0 1 3.88 8.18l-1.676 4.699a6.401 6.401 0 0 1-8.18 3.879Z" stroke="#EB01F3" fill="none"></path><path d="M15.441 13.992 9.954 27.959" stroke="#EB01F3" fill="none"></path></g></svg>